<svg width="170" height="56" viewBox="0 0 170 56" fill="none" xmlns="http://www.w3.org/2000/svg">
<path fill-rule="evenodd" clip-rule="evenodd" d="M42.1564 13.16H37.4846C36.8488 13.16 36.2406 13.412 35.7707 13.888L29.0533 20.776C28.2793 21.588 27.0077 21.588 26.206 20.776L19.5163 13.888C19.074 13.412 18.4382 13.16 17.8024 13.16H13.1306C11.5273 13.16 10.228 14.504 10.228 16.156V39.564C10.228 41.216 11.5273 42.56 13.1306 42.56H22.5018H22.4741C22.4189 42.532 22.3636 42.504 22.3083 42.448L17.0836 33.124C15.7015 30.632 16.5031 27.468 18.9081 26.04L19.2675 25.816C19.2675 25.62 19.3228 25.424 19.3781 25.256C19.6545 24.36 20.4562 23.716 21.4237 23.716C21.783 23.716 22.1148 23.8 22.4189 23.968C22.9164 24.22 23.3034 24.696 23.497 25.256C23.5522 25.48 23.6075 25.704 23.6075 25.928C23.6075 25.956 23.6075 25.984 23.6075 26.04C23.5522 27.216 22.6124 28.14 21.4513 28.14C21.092 28.14 20.7602 28.056 20.4562 27.888L20.0968 28.084C19.461 28.448 19.0187 29.064 18.8528 29.764C18.6593 30.492 18.7699 31.248 19.1293 31.892L24.3263 41.244C24.5751 41.664 24.9068 42.028 25.3491 42.28C25.5702 42.392 25.7914 42.504 26.0125 42.56H26.0678H26.0954H29.2192C29.468 42.504 29.6891 42.392 29.9103 42.28C30.3249 42.028 30.6843 41.692 30.9331 41.244L36.1301 31.92C36.4894 31.276 36.6 30.52 36.4065 29.792C36.213 29.064 35.7707 28.476 35.1625 28.112L34.8032 27.916C34.4991 28.084 34.1674 28.168 33.808 28.168C32.647 28.168 31.7071 27.244 31.6518 26.068C31.6518 26.04 31.6518 26.012 31.6518 25.956C31.6518 25.704 31.6795 25.48 31.7624 25.284C31.9282 24.724 32.3153 24.276 32.8405 23.996C33.1446 23.828 33.4763 23.744 33.8357 23.744C34.8032 23.744 35.6048 24.388 35.8813 25.284C35.9366 25.48 35.9642 25.648 35.9919 25.844L36.3512 26.068C38.7562 27.496 39.5855 30.66 38.1757 33.152L32.9511 42.476C32.9234 42.532 32.8681 42.588 32.7852 42.588H42.1564C43.7597 42.588 45.059 41.244 45.059 39.592V16.156C45.059 14.504 43.7597 13.16 42.1564 13.16Z" fill="#EE3C30"/>
<path d="M73.8824 37.3334L77.5082 27.6492V37.3334H81.7575V18.6667H77.5082L72.2196 32.8421L66.8849 18.6667H62.6587V37.3334H66.908V27.6492L70.5338 37.3334H73.8824Z" fill="#343A40"/>
<path d="M84.2515 37.3333H96.0756V33.731H88.6393V29.5672H95.0133V25.9649H88.6393V22.269H95.9602V18.6667H84.2515V37.3333Z" fill="#343A40"/>
<path d="M108.131 28C108.131 32.7485 107.184 33.8246 104.921 33.8246H102.496V22.1754H104.921C107.184 22.1754 108.131 23.2515 108.131 28ZM105.152 37.3333C111.11 37.3333 112.519 33.4503 112.519 28C112.519 22.5497 111.11 18.6667 105.152 18.6667H98.1079V37.3333H105.152Z" fill="#343A40"/>
<path d="M119.054 18.6667H114.667V37.3333H119.054V18.6667Z" fill="#343A40"/>
<path d="M121.525 37.3333H125.913V29.8246H132.287V26.2222H125.913V22.269H133.096V18.6667H121.525V37.3333Z" fill="#343A40"/>
<path d="M134.897 37.3333H146.721V33.731H139.285V18.6667H134.897V37.3333Z" fill="#343A40"/>
<path d="M152.656 18.6667H148.269V37.3333H152.656V18.6667Z" fill="#343A40"/>
<path d="M165.427 37.3333H170L164.965 27.6725L169.607 18.6667H165.035L162.079 25.0292L159.122 18.6667H154.55L159.192 27.6725L154.157 37.3333H158.73L162.079 30.386L165.427 37.3333Z" fill="#343A40"/>
</svg>
