<svg width="16" height="16" viewBox="0 0 16 16" fill="none" xmlns="http://www.w3.org/2000/svg">
<path d="M13.5998 1.6H12.7998V0H11.1998V1.6H4.7998V0H3.1998V1.6H2.3998C1.5118 1.6 0.807805 2.32 0.807805 3.2L0.799805 14.4C0.799805 15.28 1.5118 16 2.3998 16H13.5998C14.4798 16 15.1998 15.28 15.1998 14.4V3.2C15.1998 2.32 14.4798 1.6 13.5998 1.6ZM13.5998 14.4H2.3998V6.4H13.5998V14.4ZM13.5998 4.8H2.3998V3.2H13.5998V4.8ZM5.5998 9.6H3.9998V8H5.5998V9.6ZM8.7998 9.6H7.1998V8H8.7998V9.6ZM11.9998 9.6H10.3998V8H11.9998V9.6ZM5.5998 12.8H3.9998V11.2H5.5998V12.8ZM8.7998 12.8H7.1998V11.2H8.7998V12.8ZM11.9998 12.8H10.3998V11.2H11.9998V12.8Z" fill="#868E96"/>
</svg>
