<svg width="44" height="44" viewBox="0 0 44 44" fill="none" xmlns="http://www.w3.org/2000/svg">
<circle cx="22" cy="22" r="22" fill="#33B7F0" fill-opacity="0.6"/>
<mask id="mask0_266_321" style="mask-type:alpha" maskUnits="userSpaceOnUse" x="0" y="0" width="44" height="44">
<circle cx="22" cy="22" r="22" fill="#748FFC"/>
</mask>
<g mask="url(#mask0_266_321)">
<path fill-rule="evenodd" clip-rule="evenodd" d="M49.077 11.8462H43.6293C42.8879 11.8462 42.1788 12.1432 41.6308 12.7044L33.7978 20.8246C32.8953 21.7818 31.4125 21.7818 30.4777 20.8246L22.677 12.7044C22.1612 12.1432 21.4198 11.8462 20.6784 11.8462H15.2308C13.3612 11.8462 11.8462 13.4306 11.8462 15.3781V42.9735C11.8462 44.921 13.3612 46.5055 15.2308 46.5055H26.1583H26.126C26.0616 46.4725 25.9971 46.4394 25.9326 46.3734L19.8403 35.3815C18.2286 32.4437 19.1634 28.7137 21.9678 27.0302L22.3869 26.7662C22.3869 26.5351 22.4513 26.304 22.5158 26.106C22.8381 25.0497 23.7729 24.2905 24.9011 24.2905C25.3202 24.2905 25.707 24.3895 26.0616 24.5876C26.6418 24.8847 27.0931 25.4458 27.3187 26.106C27.3832 26.3701 27.4477 26.6341 27.4477 26.8982C27.4477 26.9312 27.4477 26.9642 27.4477 27.0302C27.3832 28.4166 26.2872 29.5059 24.9334 29.5059C24.5143 29.5059 24.1275 29.4069 23.7729 29.2088L23.3539 29.4399C22.6125 29.869 22.0967 30.5952 21.9033 31.4204C21.6777 32.2786 21.8066 33.1699 22.2257 33.9291L28.2858 44.954C28.5759 45.4492 28.9627 45.8783 29.4784 46.1754C29.7363 46.3074 29.9942 46.4394 30.2521 46.5055H30.3165H30.3488H33.9912C34.2814 46.4394 34.5392 46.3074 34.7971 46.1754C35.2806 45.8783 35.6997 45.4822 35.9898 44.954L42.0499 33.9621C42.4689 33.2029 42.5978 32.3117 42.3722 31.4534C42.1466 30.5952 41.6308 29.902 40.9216 29.4729L40.5026 29.2418C40.148 29.4399 39.7612 29.5389 39.3422 29.5389C37.9883 29.5389 36.8923 28.4496 36.8279 27.0632C36.8279 27.0302 36.8279 26.9972 36.8279 26.9312C36.8279 26.6341 36.8601 26.3701 36.9568 26.139C37.1502 25.4788 37.6015 24.9507 38.214 24.6206C38.5685 24.4225 38.9553 24.3235 39.3744 24.3235C40.5026 24.3235 41.4374 25.0827 41.7597 26.139C41.8242 26.3701 41.8564 26.5681 41.8887 26.7992L42.3077 27.0632C45.1121 28.7467 46.0792 32.4767 44.4352 35.4145L38.3429 46.4064C38.3107 46.4725 38.2462 46.5385 38.1495 46.5385H49.077C50.9466 46.5385 52.4616 44.954 52.4616 43.0065V15.3781C52.4616 13.4306 50.9466 11.8462 49.077 11.8462Z" fill="#33B7F0"/>
</g>
</svg>
