<svg width="52" height="52" viewBox="0 0 52 52" fill="none" xmlns="http://www.w3.org/2000/svg">
<circle cx="26" cy="26" r="26" fill="#5779FF" fill-opacity="0.6"/>
<mask id="mask0_266_310" style="mask-type:alpha" maskUnits="userSpaceOnUse" x="0" y="0" width="52" height="52">
<circle cx="26" cy="26" r="26" fill="#748FFC"/>
</mask>
<g mask="url(#mask0_266_310)">
<path fill-rule="evenodd" clip-rule="evenodd" d="M58 14H51.5619C50.6857 14 49.8476 14.3511 49.2 15.0143L39.9429 24.6108C38.8762 25.7422 37.1238 25.7422 36.019 24.6108L26.8 15.0143C26.1905 14.3511 25.3143 14 24.4381 14H18C15.7905 14 14 15.8725 14 18.1741V50.7869C14 53.0885 15.7905 54.961 18 54.961H30.9143H30.8762C30.8 54.922 30.7238 54.883 30.6476 54.805L23.4476 41.8145C21.5429 38.3425 22.6476 33.9343 25.9619 31.9448L26.4571 31.6327C26.4571 31.3597 26.5333 31.0866 26.6095 30.8525C26.9905 29.6042 28.0952 28.7069 29.4286 28.7069C29.9238 28.7069 30.381 28.824 30.8 29.058C31.4857 29.4091 32.019 30.0723 32.2857 30.8525C32.3619 31.1646 32.4381 31.4767 32.4381 31.7888C32.4381 31.8278 32.4381 31.8668 32.4381 31.9448C32.3619 33.5833 31.0667 34.8706 29.4667 34.8706C28.9714 34.8706 28.5143 34.7536 28.0952 34.5195L27.6 34.7926C26.7238 35.2997 26.1143 36.1579 25.8857 37.1332C25.619 38.1475 25.7714 39.2008 26.2667 40.098L33.4286 53.1275C33.7714 53.7127 34.2286 54.2198 34.8381 54.5709C35.1429 54.7269 35.4476 54.883 35.7524 54.961H35.8286H35.8667H40.1714C40.5143 54.883 40.819 54.7269 41.1238 54.5709C41.6952 54.2198 42.1905 53.7517 42.5333 53.1275L49.6952 40.137C50.1905 39.2398 50.3429 38.1865 50.0762 37.1722C49.8095 36.1579 49.2 35.3387 48.3619 34.8316L47.8667 34.5585C47.4476 34.7926 46.9905 34.9096 46.4952 34.9096C44.8952 34.9096 43.6 33.6223 43.5238 31.9838C43.5238 31.9448 43.5238 31.9058 43.5238 31.8278C43.5238 31.4767 43.5619 31.1646 43.6762 30.8915C43.9048 30.1113 44.4381 29.4872 45.1619 29.0971C45.581 28.863 46.0381 28.746 46.5333 28.746C47.8667 28.746 48.9714 29.6432 49.3524 30.8915C49.4286 31.1646 49.4667 31.3987 49.5048 31.6717L50 31.9838C53.3143 33.9734 54.4571 38.3815 52.5143 41.8535L45.3143 54.844C45.2762 54.922 45.2 55 45.0857 55H58C60.2095 55 62 53.1275 62 50.8259V18.1741C62 15.8725 60.2095 14 58 14Z" fill="#5779FF"/>
</g>
</svg>
